<?xml version="1.0" encoding="UTF-8"?>
<svg id="_Слой_1" data-name=" Слой 1" xmlns="http://www.w3.org/2000/svg" viewBox="0 0 400 400">
  <defs>
    <style>
      .cls-1 {
        fill: #bfd67b;
      }

      .cls-1, .cls-2, .cls-3, .cls-4 {
        stroke-width: 0px;
      }

      .cls-2 {
        fill: #c90066;
      }

      .cls-3 {
        fill: #1d1e1b;
      }

      .cls-4 {
        fill: #fff;
      }
    </style>
  </defs>
  <circle class="cls-4" cx="188.73" cy="213.73" r="113.22"/>
  <path class="cls-1" d="M209.21,49.66c-83.03,0-150.34,67.31-150.34,150.34s67.31,150.34,150.34,150.34,150.34-67.31,150.34-150.34S292.24,49.66,209.21,49.66ZM188.72,317.23c-52.45,0-94.97-42.52-94.97-94.97s42.52-94.97,94.97-94.97,94.97,42.52,94.97,94.97-42.52,94.97-94.97,94.97Z"/>
  <circle class="cls-3" cx="218.41" cy="200" r="29.69"/>
  <g>
    <circle class="cls-2" cx="82.35" cy="321.03" r="68.57"/>
    <g>
      <path class="cls-4" d="M97.87,375.86c11.79-3.34,22.02-10.41,29.34-19.84-.09-1.34-.2-2.77-.32-4.29h0c-1.25-13.05-8.04-19.66-19.66-21.98,13.77-1.79,23.96-12.51,23.96-28.96,0-3.77-.44-7.29-1.29-10.54-8.68-13.29-22.77-22.71-39.15-25.14-1.04-.04-2.1-.06-3.18-.06h-13.17c-15.61,2.19-29.18,10.72-38.02,22.91h45.83c12.87,0,19.31,5.52,19.31,14.64,0,10.37-6.44,14.28-19.31,14.28h-48.69v23.42h47.26c10.19,0,15.73,2.86,16.63,15.73.68,8.79.59,13.14.51,17.32-.02.84-.03,1.67-.04,2.52Z"/>
      <path class="cls-4" d="M71.75,366.28c0-2.35-1.15-6.28-6.46-6.28h-24.41c8.06,8.63,18.79,14.73,30.87,17.02v-10.74Z"/>
    </g>
  </g>
</svg>